<svg width="15" height="14" viewBox="0 0 15 14" fill="none" xmlns="http://www.w3.org/2000/svg">
<path d="M7.3125 0.1875C7.375 0.125 7.46875 0.09375 7.59375 0.09375C7.6875 0.09375 7.78125 0.125 7.84375 0.1875L14.375 6.75C14.4375 6.8125 14.5 6.90625 14.5 7C14.5 7.125 14.4375 7.1875 14.375 7.25L7.84375 13.8125C7.78125 13.875 7.6875 13.9062 7.59375 13.9062C7.46875 13.9062 7.375 13.875 7.3125 13.8125L6.6875 13.1875C6.625 13.125 6.59375 13.0625 6.59375 12.9375C6.59375 12.8438 6.625 12.75 6.6875 12.6562L11.5312 7.8125H0.875C0.75 7.8125 0.65625 7.78125 0.59375 7.71875C0.53125 7.65625 0.5 7.5625 0.5 7.4375V6.5625C0.5 6.46875 0.53125 6.375 0.59375 6.3125C0.65625 6.25 0.75 6.1875 0.875 6.1875H11.5312L6.6875 1.34375C6.625 1.28125 6.59375 1.1875 6.59375 1.0625C6.59375 0.96875 6.625 0.875 6.6875 0.8125L7.3125 0.1875Z" fill="#0197FF"/>
</svg>
