<svg width="103" height="24" viewBox="0 0 103 24" fill="none" xmlns="http://www.w3.org/2000/svg">
<path d="M7.81069 2.78948H1.11581C0.557905 2.78948 0 2.23158 0 1.67367C0 1.11577 0.557905 0.557861 1.11581 0.557861H17.2951C17.853 0.557861 18.4109 1.11577 18.4109 1.67367C18.4109 2.23158 17.853 2.78948 17.2951 2.78948H10.3213V22.5952C10.3213 23.432 9.76336 23.9899 8.9265 23.9899C8.08964 23.9899 7.53173 23.432 7.53173 22.5952V2.78948H7.81069Z" fill="black"/>
<path d="M20.6425 12.2739C20.6425 5.85802 25.3847 0 32.6375 0C39.8903 0 44.6325 5.57906 44.6325 11.995C44.6325 18.4109 39.8903 23.99 32.6375 23.99C25.3847 24.2689 20.6425 18.6899 20.6425 12.2739ZM41.843 12.2739C41.843 6.97383 37.9376 2.51058 32.6375 2.51058C27.3374 2.51058 23.432 6.69488 23.432 11.995C23.432 17.2951 27.3374 21.7583 32.6375 21.7583C37.9376 21.7583 41.843 17.574 41.843 12.2739Z" fill="black"/>
<path d="M50.2115 1.67357C50.2115 0.836715 50.7694 0.278809 51.6063 0.278809H51.8852C52.4432 0.278809 52.7221 0.557765 53.0011 1.11567L61.3697 13.6686L69.7382 1.11567C70.0172 0.557765 70.5751 0.278809 70.8541 0.278809H71.133C71.9699 0.278809 72.5278 0.836715 72.5278 1.67357V22.5951C72.5278 23.4319 71.9699 23.9898 71.133 23.9898C70.2962 23.9898 69.7382 23.4319 69.7382 22.5951V5.02101L62.2065 15.9002C61.9276 16.4581 61.6486 16.4581 61.0907 16.4581C60.5328 16.4581 60.2538 16.1791 59.9749 15.9002L52.4432 5.02101V22.5951C52.4432 23.4319 51.8853 23.9898 51.0484 23.9898C50.2115 23.9898 49.6536 23.4319 49.6536 22.5951V1.67357H50.2115Z" fill="black"/>
<path d="M78.1068 12.2739C78.1068 5.85802 82.849 0 90.1018 0C97.3546 0 102.097 5.57906 102.097 11.995C102.097 18.4109 97.3546 23.99 90.1018 23.99C82.849 24.2689 78.1068 18.6899 78.1068 12.2739ZM99.3073 12.2739C99.3073 6.97383 95.4019 2.51058 90.1018 2.51058C84.8017 2.51058 80.8963 6.69488 80.8963 11.995C80.8963 17.2951 84.8017 21.7583 90.1018 21.7583C95.4019 21.7583 99.3073 17.574 99.3073 12.2739Z" fill="black"/>
</svg>
